# xmcd CD database file
#
# Track frame offsets:
#	150
#	14805
#	28680
#	43090
#	58470
#	71085
#	85090
#	98365
#	112325
#	128995
#	142315
#	156453
#	174855
#	192237
#
# Disc length: 2715 seconds
#
# Revision: 1
# Processed by: cddbd v1.4PL0 Copyright (c) Steve Scherf et al.
# Submitted via: CDex 1.50Beta7
#
DISCID=d30a990e
DTITLE=Viva Cuba! - Echale Salsita
DYEAR=2001
DGENRE=Salsa
TTITLE0=Sexteto Boloña - Aurora en pekin
TTITLE1=Sexteto Boloña - Linda Mora
TTITLE2=Sexteto Machin - Avellana y mani
TTITLE3=Sexteto Machin - El rey manolo
TTITLE4=Septeto Matamoros - Retrato
TTITLE5=Septeto Nacional - Entre preciosas palmeras
TTITLE6=Septeto Nacional - Descanso
TTITLE7=Septeto Nacional - Bardo
TTITLE8=Septeto Habanero - Tres lindas cubanas
TTITLE9=Sexteto Occidente - Miguel, los hombres no lloran
TTITLE10=Septeto Nacional - Guanajo relleno
TTITLE11=Septeto Nacional - Suavecito
TTITLE12=Septeto Nacional - Echale Salsita
TTITLE13=Guillermo Portables - Promesas de un campesino
EXTD=YEAR: 2001
EXTT0=
EXTT1=
EXTT2=
EXTT3=
EXTT4=
EXTT5=
EXTT6=
EXTT7=
EXTT8=
EXTT9=
EXTT10=
EXTT11=
EXTT12=
EXTT13=
PLAYORDER=
